<svg width="20" height="20" viewBox="0 0 18 18" fill="none" xmlns="http://www.w3.org/2000/svg">
<path fill-rule="evenodd" clip-rule="evenodd" d="M8.99988 5.22498C7.99869 5.22498 7.03851 5.6227 6.33056 6.33065C5.62261 7.0386 5.22488 7.99878 5.22488 8.99998C5.22488 10.0012 5.62261 10.9614 6.33056 11.6693C7.03851 12.3773 7.99869 12.775 8.99988 12.775C10.0011 12.775 10.9613 12.3773 11.6692 11.6693C12.3772 10.9614 12.7749 10.0012 12.7749 8.99998C12.7749 7.99878 12.3772 7.0386 11.6692 6.33065C10.9613 5.6227 10.0011 5.22498 8.99988 5.22498ZM7.24979 7.24989C7.71395 6.78573 8.34347 6.52498 8.99988 6.52498C9.65629 6.52498 10.2858 6.78573 10.75 7.24989C11.2141 7.71404 11.4749 8.34356 11.4749 8.99998C11.4749 9.65639 11.2141 10.2859 10.75 10.7501C10.2858 11.2142 9.65629 11.475 8.99988 11.475C8.34347 11.475 7.71395 11.2142 7.24979 10.7501C6.78564 10.2859 6.52488 9.65639 6.52488 8.99998C6.52488 8.34356 6.78564 7.71404 7.24979 7.24989Z" fill="current"/>
<path fill-rule="evenodd" clip-rule="evenodd" d="M5.84258 14.8567C6.00139 15 6.10227 15.1965 6.12608 15.4091L6.20753 16.1359C6.29265 16.8954 6.867 17.5728 7.69922 17.701C8.56199 17.834 9.44006 17.834 10.3028 17.7012C11.1365 17.5728 11.7112 16.8935 11.795 16.1326L11.8758 15.3993L11.8765 15.3928C11.8909 15.2562 11.9374 15.1249 12.0122 15.0097C12.087 14.8944 12.188 14.7986 12.307 14.7299C12.426 14.6612 12.5595 14.6216 12.6967 14.6144C12.8339 14.6072 12.9708 14.6326 13.0963 14.6884L13.7676 14.9821C14.4746 15.2914 15.3543 15.1258 15.879 14.4622C16.4125 13.7875 16.8464 13.0398 17.1674 12.2418C17.484 11.4549 17.1889 10.607 16.5666 10.1475L15.974 9.70989L15.9686 9.70597C15.8575 9.62474 15.767 9.51842 15.7047 9.39565C15.6423 9.27288 15.6098 9.13713 15.6098 8.99943C15.6098 8.86174 15.6423 8.72598 15.7047 8.60321C15.767 8.48044 15.8575 8.37412 15.9686 8.2929L16.5642 7.85509C17.1878 7.39672 17.485 6.54861 17.1689 5.76041C16.8476 4.95924 16.4117 4.20889 15.875 3.53286C15.3496 2.87122 14.4715 2.70712 13.7659 3.01581L13.1071 3.30404C12.9503 3.37034 12.7781 3.39117 12.61 3.36411C12.4421 3.33709 12.2852 3.26338 12.1573 3.15145C11.9987 3.00781 11.8981 2.8101 11.8748 2.59731L11.798 1.87873C11.7155 1.10738 11.1309 0.425984 10.2934 0.301692C9.87366 0.239401 9.45036 0.205583 9.02651 0.200163L9.00994 0.199951L8.99337 0.200162C8.56612 0.205591 8.13911 0.239559 7.71565 0.302123C6.88086 0.425462 6.2958 1.10271 6.21034 1.87226L6.12985 2.59713C6.10531 2.81315 6.00233 3.01265 5.84043 3.15778C5.67855 3.3029 5.46903 3.38355 5.25165 3.38444C5.13229 3.38454 5.01422 3.35968 4.90502 3.31146L4.23651 3.01898C3.53074 2.71021 2.65229 2.87451 2.12703 3.53653C1.59058 4.21267 1.15504 4.96306 0.834023 5.76423C0.518909 6.55068 0.814238 7.39689 1.43529 7.85579L2.02795 8.29372L2.02933 8.29474C2.14033 8.37653 2.23055 8.48325 2.29273 8.60631C2.35491 8.72936 2.38731 8.86531 2.38731 9.00318C2.38731 9.14106 2.35491 9.277 2.29273 9.40005C2.23055 9.52311 2.14033 9.62983 2.02933 9.71162L1.43339 10.1519C0.81254 10.6105 0.517081 11.4563 0.831595 12.2426C1.15254 13.0449 1.58833 13.7965 2.12531 14.4736C2.64991 15.1351 3.52727 15.3 4.23282 14.9925L4.8951 14.7038C5.05147 14.6381 5.22319 14.6175 5.39071 14.6445C5.55825 14.6716 5.71481 14.7451 5.84258 14.8567ZM14.2869 4.20681C14.4867 4.11944 14.7213 4.17051 14.8569 4.34123C15.3154 4.91879 15.6878 5.55984 15.9623 6.24432C16.0439 6.44765 15.9708 6.67787 15.7943 6.80763L15.2018 7.24318C14.9254 7.44509 14.7006 7.70938 14.5456 8.01455C14.3906 8.31972 14.3098 8.65716 14.3098 8.99943C14.3098 9.3417 14.3906 9.67914 14.5456 9.98432C14.7006 10.2895 14.9254 10.5538 15.2018 10.7557L15.7943 11.1932C15.9705 11.3233 16.0431 11.5535 15.9613 11.7566C15.6868 12.4392 15.3156 13.0788 14.8593 13.6558C14.7238 13.8272 14.4887 13.8786 14.2886 13.7911L13.6249 13.5007C13.312 13.3614 12.9705 13.2982 12.6285 13.3162C12.2864 13.3341 11.9535 13.4328 11.6569 13.6041C11.3603 13.7754 11.1084 14.0144 10.9219 14.3017C10.7353 14.589 10.6194 14.9163 10.5836 15.2569L10.5028 15.9903C10.4791 16.2059 10.3193 16.3833 10.105 16.4163C9.37337 16.529 8.62881 16.5289 7.89722 16.4162C7.68322 16.3832 7.52356 16.2063 7.49944 15.9911L7.41801 15.2644C7.35843 14.7324 7.10475 14.2411 6.70551 13.8844C6.39308 13.6089 6.00905 13.4275 5.59782 13.3612C5.1866 13.2948 4.76499 13.3462 4.38176 13.5094L3.71339 13.8008C3.51368 13.8878 3.27926 13.8365 3.14389 13.6658C2.68513 13.0873 2.31281 12.4453 2.03862 11.7598C1.95747 11.5569 2.03011 11.3273 2.20585 11.1975L2.80051 10.7582C3.07547 10.5556 3.29898 10.2912 3.45302 9.98635C3.60705 9.6815 3.68731 9.34473 3.68731 9.00318C3.68731 8.66163 3.60705 8.32486 3.45302 8.02002C3.29898 7.71518 3.07547 7.45079 2.80051 7.24818L2.20785 6.81026C2.03205 6.68035 1.95946 6.45066 2.04076 6.24775C2.31502 5.56328 2.68712 4.92218 3.14543 4.34454C3.28096 4.17371 3.51567 4.12259 3.71545 4.20999L4.37988 4.50068C4.65551 4.62239 4.95358 4.68499 5.25488 4.68443C5.79144 4.68275 6.30866 4.48392 6.70819 4.12577C7.10771 3.76761 7.36167 3.27511 7.42176 2.74193L7.5024 2.01574C7.52656 1.79822 7.68916 1.62015 7.90566 1.58816C8.27144 1.53412 8.64049 1.50475 9.00988 1.50006C9.37568 1.50473 9.74077 1.53392 10.1025 1.58761C10.3195 1.61981 10.482 1.79882 10.5054 2.01692L10.5824 2.73756C10.6403 3.27108 10.8934 3.76437 11.293 4.12256C11.606 4.39914 11.991 4.5812 12.4034 4.64759C12.8157 4.71397 13.2384 4.66194 13.6224 4.49756L14.2869 4.20681Z" fill="current"/>
</svg>
